<mxfile host="Electron" agent="Mozilla/5.0 (Windows NT 10.0; Win64; x64) AppleWebKit/537.36 (KHTML, like Gecko) draw.io/28.1.2 Chrome/138.0.7204.243 Electron/37.4.0 Safari/537.36" version="28.1.2">
  <diagram name="Page-1" id="AV3j2bbtPtNa8JqkTl83">
    <mxGraphModel dx="1054" dy="723" grid="1" gridSize="10" guides="1" tooltips="1" connect="1" arrows="1" fold="1" page="1" pageScale="1" pageWidth="850" pageHeight="1100" math="0" shadow="0">
      <root>
        <mxCell id="0" />
        <mxCell id="1" parent="0" />
        <mxCell id="ZSB0cyttxRbERRQLc6Zy-21" style="rounded=0;orthogonalLoop=1;jettySize=auto;html=1;entryX=0.638;entryY=0.95;entryDx=0;entryDy=0;entryPerimeter=0;" parent="1" edge="1">
          <mxGeometry relative="1" as="geometry">
            <mxPoint x="551.04" y="288" as="targetPoint" />
          </mxGeometry>
        </mxCell>
        <mxCell id="1kjvFPUm_yVqk4Nx_UZz-16" value="" style="group;fillColor=#dae8fc;strokeColor=#6c8ebf;" vertex="1" connectable="0" parent="1">
          <mxGeometry x="210" y="150" width="78" height="338.47000000000014" as="geometry" />
        </mxCell>
        <mxCell id="1kjvFPUm_yVqk4Nx_UZz-10" value="3" style="rounded=0;whiteSpace=wrap;html=1;container=0;flipH=0;flipV=1;" vertex="1" parent="1kjvFPUm_yVqk4Nx_UZz-16">
          <mxGeometry y="65.91489361702133" width="78" height="28.46808510638298" as="geometry" />
        </mxCell>
        <mxCell id="1kjvFPUm_yVqk4Nx_UZz-11" value="31" style="rounded=0;whiteSpace=wrap;html=1;container=0;flipH=0;flipV=1;" vertex="1" parent="1kjvFPUm_yVqk4Nx_UZz-16">
          <mxGeometry y="119.99851063829806" width="78" height="28.46808510638298" as="geometry" />
        </mxCell>
        <mxCell id="1kjvFPUm_yVqk4Nx_UZz-12" value="98" style="rounded=0;whiteSpace=wrap;html=1;container=0;flipH=0;flipV=1;" vertex="1" parent="1kjvFPUm_yVqk4Nx_UZz-16">
          <mxGeometry y="190.00212765957463" width="78" height="28.46808510638298" as="geometry" />
        </mxCell>
        <mxCell id="1kjvFPUm_yVqk4Nx_UZz-13" value="92" style="rounded=0;whiteSpace=wrap;html=1;container=0;flipH=0;flipV=1;" vertex="1" parent="1kjvFPUm_yVqk4Nx_UZz-16">
          <mxGeometry y="249.99638297872332" width="78" height="28.46808510638298" as="geometry" />
        </mxCell>
        <mxCell id="1kjvFPUm_yVqk4Nx_UZz-14" value="23" style="rounded=0;whiteSpace=wrap;html=1;container=0;flipH=0;flipV=1;" vertex="1" parent="1kjvFPUm_yVqk4Nx_UZz-16">
          <mxGeometry y="310.00191489361714" width="78" height="28.46808510638298" as="geometry" />
        </mxCell>
        <mxCell id="1kjvFPUm_yVqk4Nx_UZz-15" value="34" style="rounded=0;whiteSpace=wrap;html=1;container=0;flipH=0;flipV=1;" vertex="1" parent="1kjvFPUm_yVqk4Nx_UZz-16">
          <mxGeometry width="78" height="28.46808510638298" as="geometry" />
        </mxCell>
        <mxCell id="1kjvFPUm_yVqk4Nx_UZz-35" value="" style="group;container=0;" vertex="1" connectable="0" parent="1">
          <mxGeometry x="440" y="150" width="78" height="338.47000000000014" as="geometry" />
        </mxCell>
        <mxCell id="1kjvFPUm_yVqk4Nx_UZz-36" value="3" style="rounded=0;whiteSpace=wrap;html=1;container=0;flipH=0;flipV=1;" vertex="1" parent="1">
          <mxGeometry x="600" y="399.9948936170214" width="78" height="28.46808510638298" as="geometry" />
        </mxCell>
        <mxCell id="1kjvFPUm_yVqk4Nx_UZz-42" style="rounded=0;orthogonalLoop=1;jettySize=auto;html=1;" edge="1" parent="1" source="1kjvFPUm_yVqk4Nx_UZz-37" target="1kjvFPUm_yVqk4Nx_UZz-36">
          <mxGeometry relative="1" as="geometry" />
        </mxCell>
        <mxCell id="1kjvFPUm_yVqk4Nx_UZz-37" value="31" style="rounded=0;whiteSpace=wrap;html=1;container=0;flipH=0;flipV=1;" vertex="1" parent="1">
          <mxGeometry x="560" y="279.99851063829806" width="78" height="28.46808510638298" as="geometry" />
        </mxCell>
        <mxCell id="1kjvFPUm_yVqk4Nx_UZz-38" value="98" style="rounded=0;whiteSpace=wrap;html=1;container=0;flipH=0;flipV=1;" vertex="1" parent="1">
          <mxGeometry x="440" y="340.0021276595746" width="78" height="28.46808510638298" as="geometry" />
        </mxCell>
        <mxCell id="1kjvFPUm_yVqk4Nx_UZz-39" value="92" style="rounded=0;whiteSpace=wrap;html=1;container=0;flipH=0;flipV=1;" vertex="1" parent="1">
          <mxGeometry x="440" y="399.9963829787233" width="78" height="28.46808510638298" as="geometry" />
        </mxCell>
        <mxCell id="1kjvFPUm_yVqk4Nx_UZz-40" value="23" style="rounded=0;whiteSpace=wrap;html=1;container=0;flipH=0;flipV=1;" vertex="1" parent="1">
          <mxGeometry x="440" y="460.00191489361714" width="78" height="28.46808510638298" as="geometry" />
        </mxCell>
        <mxCell id="1kjvFPUm_yVqk4Nx_UZz-41" value="34" style="rounded=0;whiteSpace=wrap;html=1;container=0;flipH=0;flipV=1;" vertex="1" parent="1">
          <mxGeometry x="600" y="460" width="78" height="28.46808510638298" as="geometry" />
        </mxCell>
      </root>
    </mxGraphModel>
  </diagram>
</mxfile>
